<svg width="46" height="46" viewBox="0 0 46 46" fill="none" xmlns="http://www.w3.org/2000/svg">
<path d="M36.3333 3H9.66669C5.98478 3 3 5.98478 3 9.66669V36.3333C3 40.0152 5.98478 43 9.66669 43H36.3333C40.0152 43 43 40.0152 43 36.3333V9.66669C43 5.98478 40.0152 3 36.3333 3Z" fill="url(#paint0_linear_2542_408)" fill-opacity="0.2"/>
<rect x="1" y="1" width="44" height="44" rx="6.6" fill="url(#paint1_linear_2542_408)"/>
<rect x="0.5" y="0.5" width="45" height="45" rx="7.1" stroke="white" stroke-opacity="0.4"/>
<path fill-rule="evenodd" clip-rule="evenodd" d="M18.1975 11.035L28.9139 11.035C29.3912 11.035 29.7781 11.4219 29.7781 11.8992L29.7781 17.9488C29.7781 18.4261 29.3912 18.8131 28.9139 18.8131L18.1975 18.8131C17.7202 18.8131 17.3332 18.4261 17.3332 17.9488L17.3332 11.8992C17.3332 11.4219 17.7202 11.035 18.1975 11.035Z" stroke="#133B84" stroke-width="1.5"/>
<path fill-rule="evenodd" clip-rule="evenodd" d="M8.32638 29.7796L19.0428 29.7796C19.5201 29.7796 19.9071 30.1666 19.9071 30.6439L19.9071 34.1008C19.9071 34.5781 19.5201 34.965 19.0428 34.965L8.32638 34.965C7.84908 34.965 7.46215 34.5781 7.46215 34.1008L7.46215 30.6439C7.46215 30.1666 7.84908 29.7796 8.32638 29.7796Z" stroke="#133B84" stroke-width="1.5"/>
<path fill-rule="evenodd" clip-rule="evenodd" d="M27.9572 29.7796L38.6737 29.7796C39.151 29.7796 39.5379 30.1666 39.5379 30.6439L39.5379 34.1008C39.5379 34.5781 39.151 34.965 38.6737 34.965L27.9572 34.965C27.4799 34.965 27.093 34.5781 27.093 34.1008L27.093 30.6439C27.093 30.1666 27.4799 29.7796 27.9572 29.7796Z" stroke="#133B84" stroke-width="1.5"/>
<path d="M23.624 18.7839V24.1727" stroke="#133B84" stroke-width="1.5"/>
<path d="M33.3947 30.358V25.9011C33.3947 24.9465 32.6209 24.1726 31.6663 24.1726H15.3349C14.3803 24.1726 13.6064 24.9465 13.6064 25.9011V30.358" stroke="#133B84" stroke-width="1.5"/>
<path d="M36.3333 3H9.66669C5.98478 3 3 5.98478 3 9.66669V36.3333C3 40.0152 5.98478 43 9.66669 43H36.3333C40.0152 43 43 40.0152 43 36.3333V9.66669C43 5.98478 40.0152 3 36.3333 3Z" fill="url(#paint2_linear_2542_408)" fill-opacity="0.2"/>
<rect x="1" y="1" width="44" height="44" rx="6" fill="url(#paint3_linear_2542_408)"/>
<rect x="0.5" y="0.5" width="45" height="45" rx="6.5" stroke="white" stroke-opacity="0.4"/>
<path d="M7.53223 36.7967H10.0699M38.2172 36.7967H35.8792M32.219 36.7967V22.6469C32.219 22.317 32.4865 22.0496 32.8164 22.0496H35.2819C35.6118 22.0496 35.8792 22.317 35.8792 22.6469V36.7967M32.219 36.7967H35.8792M32.219 36.7967H28.5588M28.5588 36.7967V27.9965C28.5588 27.6666 28.2913 27.3991 27.9614 27.3991H25.6836C25.3537 27.3991 25.0863 27.6666 25.0863 27.9965V36.7967M28.5588 36.7967H25.0863M25.0863 36.7967H21.3322M21.3322 36.7967V24.9932C21.3322 24.6633 21.0647 24.3959 20.7348 24.3959H17.7062C17.3763 24.3959 17.1088 24.6633 17.1088 24.9932V36.7967M21.3322 36.7967H17.1088M17.1088 36.7967H13.7302M13.7302 36.7967V29.7797C13.7302 29.4498 13.4627 29.1823 13.1328 29.1823H10.6673C10.3374 29.1823 10.0699 29.4498 10.0699 29.7797V36.7967M13.7302 36.7967H10.0699" stroke="#133B84" stroke-width="1.5" stroke-linecap="round"/>
<path d="M11.4893 19.0533L15.5693 16.2788" stroke="#133B84" stroke-width="1.5" stroke-linecap="round"/>
<path d="M19.75 15.7893L23.5341 17.9628" stroke="#133B84" stroke-width="1.5"/>
<path d="M26.8867 18.6241L30.0234 15.7893" stroke="#133B84" stroke-width="1.5"/>
<circle cx="17.8365" cy="15.4574" r="2.26622" stroke="#133B84" stroke-width="1.5"/>
<circle cx="9.79942" cy="20.6876" r="2.26622" stroke="#133B84" stroke-width="1.5"/>
<circle cx="25.1022" cy="19.0533" r="2.26622" stroke="#133B84" stroke-width="1.5"/>
<circle cx="34.2232" cy="12.4634" r="5.26027" stroke="#133B84" stroke-width="1.5"/>
<path d="M32.6348 13.6043C32.6348 14.1832 33.1157 14.6525 33.709 14.6525H34.7066C35.3423 14.6525 35.8576 14.1497 35.8576 13.5294C35.8576 12.9091 35.3423 12.4063 34.7066 12.4063H33.7858C33.1501 12.4063 32.6348 11.9035 32.6348 11.2833C32.6348 10.663 33.1501 10.1602 33.7858 10.1602H34.7833C35.3766 10.1602 35.8576 10.6295 35.8576 11.2084M34.2462 9.48633V10.1602M34.2462 14.6525V15.3263" stroke="#133B84" stroke-width="1.3" stroke-linecap="round" stroke-linejoin="round"/>
<defs>
<linearGradient id="paint0_linear_2542_408" x1="43" y1="6.32943" x2="3" y2="39.6706" gradientUnits="userSpaceOnUse">
<stop stop-color="#2F77FB"/>
<stop offset="1" stop-color="#A6C5FF"/>
</linearGradient>
<linearGradient id="paint1_linear_2542_408" x1="6.37769" y1="1" x2="39.6223" y2="45" gradientUnits="userSpaceOnUse">
<stop stop-color="#ECF3FF"/>
<stop offset="1" stop-color="#76A7FF"/>
</linearGradient>
<linearGradient id="paint2_linear_2542_408" x1="43" y1="6.32943" x2="3" y2="39.6706" gradientUnits="userSpaceOnUse">
<stop stop-color="#2F77FB"/>
<stop offset="1" stop-color="#A6C5FF"/>
</linearGradient>
<linearGradient id="paint3_linear_2542_408" x1="6.37769" y1="1" x2="39.6223" y2="45" gradientUnits="userSpaceOnUse">
<stop stop-color="#ECF3FF"/>
<stop offset="1" stop-color="#76A7FF"/>
</linearGradient>
</defs>
</svg>
